<svg width="69" height="53" viewBox="0 0 69 53" fill="none" xmlns="http://www.w3.org/2000/svg">
<path id="discord" d="M57.9695 4.67582C53.6095 2.67001 48.9341 1.19223 44.0457 0.345836C43.9567 0.329501 43.8677 0.370323 43.8219 0.451969C43.2206 1.52424 42.5546 2.9231 42.0881 4.02261C36.8303 3.23338 31.5995 3.23338 26.4495 4.02261C25.983 2.89866 25.2928 1.52424 24.6888 0.451969C24.6429 0.373047 24.554 0.332225 24.465 0.345836C19.5792 1.18952 14.9038 2.66731 10.5412 4.67582C10.5034 4.69214 10.4711 4.71938 10.4496 4.75474C1.58133 18.0386 -0.848051 30.9959 0.343723 43.7926C0.349115 43.8552 0.384167 43.9151 0.432701 43.9532C6.28371 48.2614 11.9514 50.8768 17.5139 52.6104C17.6029 52.6376 17.6972 52.605 17.7539 52.5315C19.0697 50.7299 20.2426 48.8302 21.2483 46.8325C21.3076 46.7156 21.2509 46.5768 21.1296 46.5305C19.2692 45.8229 17.4977 44.9601 15.7936 43.9804C15.6588 43.9015 15.648 43.7082 15.772 43.6157C16.1306 43.3462 16.4893 43.0659 16.8317 42.7829C16.8937 42.7312 16.98 42.7203 17.0529 42.7529C28.2479 47.8777 40.3679 47.8777 51.4308 42.7529C51.5037 42.7176 51.59 42.7285 51.6546 42.7802C51.9972 43.0632 52.3558 43.3462 52.7171 43.6157C52.8411 43.7082 52.833 43.9015 52.6982 43.9804C50.9941 44.9792 49.2226 45.8229 47.3594 46.5278C47.2381 46.574 47.1842 46.7156 47.2435 46.8325C48.2708 48.8274 49.4437 50.7271 50.7352 52.5288C50.7892 52.605 50.8862 52.6376 50.9752 52.6104C56.5646 50.8768 62.2323 48.2614 68.0833 43.9532C68.1346 43.9151 68.1669 43.8579 68.1723 43.7953C69.5987 29.001 65.7833 16.1499 58.0584 4.75744C58.0395 4.71938 58.0072 4.69214 57.9695 4.67582ZM22.9201 36.0008C19.5496 36.0008 16.7724 32.8983 16.7724 29.0881C16.7724 25.2779 19.4957 22.1754 22.9201 22.1754C26.3713 22.1754 29.1216 25.3051 29.0676 29.0881C29.0676 32.8983 26.3443 36.0008 22.9201 36.0008ZM45.65 36.0008C42.2796 36.0008 39.5024 32.8983 39.5024 29.0881C39.5024 25.2779 42.2256 22.1754 45.65 22.1754C49.1013 22.1754 51.8515 25.3051 51.7976 29.0881C51.7976 32.8983 49.1013 36.0008 45.65 36.0008Z" fill="white"/>
</svg>
