<svg width="70" height="68" viewBox="0 0 70 68" fill="none" xmlns="http://www.w3.org/2000/svg">
<path id="facebook" d="M35.1739 0C16.2847 0 0.97168 15.2446 0.97168 34.0495C0.97168 50.0173 12.0149 63.4165 26.912 67.0965V44.455H19.8595V34.0495H26.912V29.5658C26.912 17.9768 32.1805 12.6051 43.6096 12.6051C45.7766 12.6051 49.5156 13.0287 51.0451 13.4509V22.8826C50.2379 22.7982 48.8357 22.7559 47.0941 22.7559C41.4863 22.7559 39.3192 24.8711 39.3192 30.3694V34.0495H50.491L48.5716 44.455H39.3192V67.8497C56.2548 65.8135 69.3775 51.4583 69.3775 34.0495C69.3761 15.2446 54.0631 0 35.1739 0Z" fill="white"/>
</svg>
