<svg width="68" height="49" viewBox="0 0 68 49" fill="none" xmlns="http://www.w3.org/2000/svg">
<path id="youtube" d="M67.3242 10.5632C67.3242 10.5632 66.6616 5.8201 64.6208 3.73745C62.0367 0.996416 59.1478 0.982979 57.8226 0.821741C48.3343 0.123046 34.0885 0.123047 34.0885 0.123047H34.062C34.062 0.123047 19.8162 0.123046 10.3278 0.821741C9.00266 0.982979 6.11374 0.996416 3.52962 3.73745C1.48883 5.8201 0.839489 10.5632 0.839489 10.5632C0.839489 10.5632 0.150391 16.1393 0.150391 21.702V26.9153C0.150391 32.478 0.826237 38.0541 0.826237 38.0541C0.826237 38.0541 1.48883 42.7972 3.51637 44.8798C6.10049 47.6209 9.49298 47.5268 11.0037 47.8224C16.437 48.3464 34.0752 48.5077 34.0752 48.5077C34.0752 48.5077 48.3343 48.4808 57.8226 47.7955C59.1478 47.6343 62.0367 47.6209 64.6208 44.8798C66.6616 42.7972 67.3242 38.0541 67.3242 38.0541C67.3242 38.0541 68.0001 32.4914 68.0001 26.9153V21.702C68.0001 16.1393 67.3242 10.5632 67.3242 10.5632ZM27.065 33.2439V13.9088L45.3923 23.6099L27.065 33.2439Z" fill="white"/>
</svg>
