<svg width="1083" height="21" viewBox="0 0 1083 21" fill="none" xmlns="http://www.w3.org/2000/svg">
<g filter="url(#filter0_f_1119_1802)">
<g opacity="0.55">
<path d="M709 6H958L969 15H709V6Z" fill="white"/>
<path d="M979 6H1020L1031 15H991L979 6Z" fill="white"/>
<path d="M1041 6H1065.5L1076.5 15H1053L1041 6Z" fill="white"/>
</g>
<g opacity="0.55">
<path d="M373.5 6H124.5L113.5 15H373.5V6Z" fill="white"/>
<path d="M103.5 6H62.5L51.5 15H91.5L103.5 6Z" fill="white"/>
<path d="M41.5 6H17L6 15H29.5L41.5 6Z" fill="white"/>
</g>
</g>
<g opacity="0.55">
<path d="M709 6H958L969 15H709V6Z" fill="white"/>
<path d="M979 6H1020L1031 15H991L979 6Z" fill="white"/>
<path d="M1041 6H1065.5L1076.5 15H1053L1041 6Z" fill="white"/>
</g>
<g opacity="0.55">
<path d="M373.5 6H124.5L113.5 15H373.5V6Z" fill="white"/>
<path d="M103.5 6H62.5L51.5 15H91.5L103.5 6Z" fill="white"/>
<path d="M41.5 6H17L6 15H29.5L41.5 6Z" fill="white"/>
</g>
<defs>
<filter id="filter0_f_1119_1802" x="0" y="0" width="1082.5" height="21" filterUnits="userSpaceOnUse" color-interpolation-filters="sRGB">
<feFlood flood-opacity="0" result="BackgroundImageFix"/>
<feBlend mode="normal" in="SourceGraphic" in2="BackgroundImageFix" result="shape"/>
<feGaussianBlur stdDeviation="3" result="effect1_foregroundBlur_1119_1802"/>
</filter>
</defs>
</svg>
