<svg width="1496" height="21" viewBox="0 0 1496 21" fill="none" xmlns="http://www.w3.org/2000/svg">
<g filter="url(#filter0_f_3199_56)">
<g opacity="0.55">
<path d="M1122 6H1371L1382 15H1122V6Z" fill="white"/>
<path d="M1392 6H1433L1444 15H1404L1392 6Z" fill="white"/>
<path d="M1454 6H1478.5L1489.5 15H1466L1454 6Z" fill="white"/>
</g>
<g opacity="0.55">
<path d="M373.5 6H124.5L113.5 15H373.5V6Z" fill="white"/>
<path d="M103.5 6H62.5L51.5 15H91.5L103.5 6Z" fill="white"/>
<path d="M41.5 6H17L6 15H29.5L41.5 6Z" fill="white"/>
</g>
</g>
<g opacity="0.55">
<path d="M1122 6H1371L1382 15H1122V6Z" fill="white"/>
<path d="M1392 6H1433L1444 15H1404L1392 6Z" fill="white"/>
<path d="M1454 6H1478.5L1489.5 15H1466L1454 6Z" fill="white"/>
</g>
<g opacity="0.55">
<path d="M373.5 6H124.5L113.5 15H373.5V6Z" fill="white"/>
<path d="M103.5 6H62.5L51.5 15H91.5L103.5 6Z" fill="white"/>
<path d="M41.5 6H17L6 15H29.5L41.5 6Z" fill="white"/>
</g>
<defs>
<filter id="filter0_f_3199_56" x="0" y="0" width="1495.5" height="21" filterUnits="userSpaceOnUse" color-interpolation-filters="sRGB">
<feFlood flood-opacity="0" result="BackgroundImageFix"/>
<feBlend mode="normal" in="SourceGraphic" in2="BackgroundImageFix" result="shape"/>
<feGaussianBlur stdDeviation="3" result="effect1_foregroundBlur_3199_56"/>
</filter>
</defs>
</svg>
