<svg width="33" height="33" viewBox="0 0 33 33" fill="none" xmlns="http://www.w3.org/2000/svg">
<path id="facebook" d="M16.4997 0C7.38723 0 0 7.41452 0 16.5606C0 24.3269 5.32741 30.8438 12.514 32.6337V21.6215H9.11178V16.5606H12.514V14.3799C12.514 8.74334 15.0556 6.13074 20.5691 6.13074C21.6146 6.13074 23.4183 6.33675 24.1562 6.5421V11.1294C23.7668 11.0883 23.0903 11.0678 22.2501 11.0678C19.5448 11.0678 18.4994 12.0965 18.4994 14.7707V16.5606H23.8889L22.9629 21.6215H18.4994V33C26.6694 32.0097 33 25.0277 33 16.5606C32.9993 7.41452 25.6121 0 16.4997 0Z" fill="#9E9E9E"/>
</svg>
