<svg width="33" height="24" viewBox="0 0 33 24" fill="none" xmlns="http://www.w3.org/2000/svg">
<path id="youtube" d="M32.6713 5.17856C32.6713 5.17856 32.349 2.82588 31.3564 1.79284C30.0996 0.433213 28.6945 0.426548 28.05 0.34657C23.4352 -1.90682e-07 16.5064 0 16.5064 0H16.4936C16.4936 0 9.56484 -1.90682e-07 4.95 0.34657C4.30547 0.426548 2.90039 0.433213 1.64355 1.79284C0.650977 2.82588 0.335156 5.17856 0.335156 5.17856C0.335156 5.17856 0 7.94446 0 10.7037V13.2896C0 16.0489 0.328711 18.8148 0.328711 18.8148C0.328711 18.8148 0.650976 21.1675 1.63711 22.2005C2.89395 23.5601 4.54395 23.5135 5.27871 23.6601C7.92129 23.92 16.5 24 16.5 24C16.5 24 23.4352 23.9867 28.05 23.6468C28.6945 23.5668 30.0996 23.5601 31.3564 22.2005C32.349 21.1675 32.6713 18.8148 32.6713 18.8148C32.6713 18.8148 33 16.0555 33 13.2896V10.7037C33 7.94446 32.6713 5.17856 32.6713 5.17856ZM13.0904 16.4288V6.8381L22.0043 11.6501L13.0904 16.4288Z" fill="#9E9E9E"/>
</svg>
